<?xml version="1.0" encoding="utf-8"?>
<!-- Generator: Adobe Illustrator 18.1.1, SVG Export Plug-In . SVG Version: 6.00 Build 0)  -->
<svg version="1.1" id="Calque_1" xmlns="http://www.w3.org/2000/svg" xmlns:xlink="http://www.w3.org/1999/xlink" x="0px" y="0px"
	 viewBox="0 0 3000 3000" enable-background="new 0 0 3000 3000" xml:space="preserve">
<g id="logo">
	<g id="texte">
		<path d="M392.565,1544.688c-17.924,0.291-44.701,0.538-80.332,0.737c-35.627,0.203-62.405,0.447-80.332,0.737
			c-90.677,1.471-136.905,7.796-138.684,18.973c0.005,0.304,0.121,2.636,0.339,7.001l-6.975,1.921l-17.938-60.956
			c38.724-14.788,85.913-22.637,141.562-23.539c17.299-0.28,43.368-0.212,78.2,0.201c34.836,0.417,60.828,0.483,77.971,0.205
			c4.547-16.646,6.8-26.023,6.766-28.134c-0.085-5.271-2.241-11.638-6.472-19.105c-3.614-5.966-7.23-11.861-10.849-17.679
			l6.81-6.664c7.409,7.416,14.814,14.828,22.223,22.24c4.113,5.81,6.272,15.267,6.484,28.371c0.083,5.123-0.171,12.737-0.76,22.839
			c-0.588,10.105-0.844,17.642-0.764,22.613C389.829,1515.352,390.749,1525.433,392.565,1544.688z"/>
		<path d="M229.421,1204.899c-35.216,28.004-54.387,51.903-57.505,71.692c-2.767,17.561,6.587,33.218,28.058,46.97
			c17.188,10.943,35.775,17.839,55.762,20.681c11.979-65.368,18.164-99.315,18.563-101.848c2.04-12.946,0.655-26.89-4.161-41.832
			l8.188-2.599c13.754,28.857,17.689,61.961,11.804,99.312c-0.797,5.061-2.221,13.147-4.28,24.261
			c-2.055,11.114-3.564,19.723-4.526,25.823c21.757,1.294,39.496-1.172,53.209-7.401c13.716-6.225,27.642-17.91,41.781-35.052
			c11.103-13.349,17.496-25.381,19.184-36.096c2.297-14.583-2.996-26.472-15.883-35.672c-1.072-0.931-13.624-7.408-37.658-19.43
			l15.533-28.893c23.978,11.406,38.714,23.868,44.208,37.39c2.784,6.54,4.999,25.876,6.646,58.008
			c1.054,18.467,1.29,29.563,0.704,33.281c-0.61,3.872-3.084,9.887-7.418,18.047c-28.474,53.926-73.885,75.975-136.24,66.15
			c-45.983-7.245-77.409-34.765-94.28-82.567c-12.041-33.924-16.925-58.102-14.65-72.538c4.15-26.34,20.858-51.08,50.126-74.228
			L229.421,1204.899z"/>
		<path d="M330.216,977.517l-6.871,5.369c-3.482-2.288-6.561-3.939-9.238-4.955c-6.054-2.297-19.145,4.179-39.27,19.422
			c-19.576,14.65-30.672,25.426-33.29,32.325c-7.107,18.735,0.749,32.429,23.567,41.085c10.003,3.794,27.017-5.378,51.044-27.523
			c13.63-13.839,27.188-27.71,40.677-41.607c16.055-15.982,26.062-25.158,30.018-27.524c11.047-6.602,24.174-7.022,39.386-1.251
			c26.199,9.938,42.247,27.952,48.142,54.032c5.133,22.574,2.49,47.59-7.93,75.057c-17.954,47.327-42.926,65.164-74.92,53.51
			l-7.897-2.754l-5.625-2.375l15.783-53.709c12.052,7.313,19.908,11.661,23.569,13.049c8.17,3.1,16.769,2.415,25.795-2.057
			c9.028-4.468,15.116-10.859,18.27-19.171c5.076-13.38,4.409-25.638-2.002-36.771c-6.061-10.354-15.853-18.098-29.375-23.228
			c-12.113-4.595-26.869,1.812-44.269,19.218c-15.683,16.286-31.271,32.528-46.761,48.725c-19.51,16.608-37.857,21.65-55.043,15.13
			c-20.283-7.694-34.824-20.541-43.625-38.542c-4.566-9.625-7.633-24.365-9.207-44.217c-1.572-19.848-0.543-34.563,3.091-44.144
			c2.832-7.464,11.765-17.206,26.798-29.229c11.64-9.439,22.954-17.395,33.945-23.859L330.216,977.517z"/>
		<path d="M585.803,556.202c-42.286,8.419-68.838,18.506-79.655,30.254c-7.721,24.159-7.841,45.189-0.359,63.092
			c6.141,15.105,19.752,32,40.833,50.684c20.407,18.087,45.105,28.606,74.096,31.551c30.381,2.974,56.118-3.808,77.211-20.342
			c7.894-17.764-0.142-42.196-24.108-73.302l33.424-24.426c31.304,36.001,22.675,81.393-25.887,136.185
			c-19.686,22.212-45.832,31.952-78.437,29.22c-29.929-2.568-56.394-14.049-79.393-34.433c-24.69-21.883-38.721-46.595-42.087-74.14
			c-3.037-23.828,1.863-52.295,14.701-85.407c3.565-8.111,8.365-20.564,14.396-37.365c24.546-17.697,50.576-28.446,78.095-32.241
			L585.803,556.202z"/>
		<path d="M714.057,430.521c10.438-40.153,22.84-65.342,37.202-75.561c19.885-14.149,42.623-19.417,68.209-15.809
			c25.589,3.611,45.371,15.236,59.344,34.874c8.037,11.294,18.253,29.354,30.65,54.182c12.399,24.831,22.658,42.951,30.781,54.367
			c7.25,10.19,13.268,13.579,18.055,10.172c0.857-0.61,1.71-1.494,2.553-2.648l6.583,6.132c-5.994,6.856-11.99,13.71-17.983,20.562
			c-7.287,8.145-13.868,14.305-19.736,18.481c-1.591,1.132-2.98,2.03-4.167,2.688c-3.53,1.775-7.04,0.204-10.534-4.707
			c-9.781-13.746-22.82-35.578-39.114-65.494c-16.292-29.913-29.331-51.745-39.114-65.493c-8.471-11.904-23.355-18.14-44.649-18.706
			c-19.999-0.56-36.137,3.526-48.41,12.259c-24.672,17.556-19.002,53.458,17.011,107.707c25.76,38.803,47.784,72.221,66.069,100.256
			l-34.395,33.903c-10.567-14.851-26.224-37.177-46.966-66.979c-20.743-29.797-36.397-52.125-46.966-66.979
			c-23.844-33.51-39.07-54.384-45.673-62.629c-26.457-32.76-43.567-46.282-51.335-40.573l-3.735,2.935l-5.311-4.736l39.978-49.053
			C662.551,370.482,689.77,397.431,714.057,430.521z"/>
		<path d="M1103.78,245.456c-42.16-15.715-72.523-19.805-91.083-12.264c-16.47,6.692-25.055,22.783-25.756,48.271
			c-0.504,20.37,3.179,39.849,11.059,58.436c62.174-23.47,94.444-35.689,96.819-36.654c12.142-4.933,23.372-13.314,33.686-25.15
			l6.451,5.672c-17.621,26.672-43.947,47.125-78.978,61.357c-4.747,1.928-12.408,4.881-22.99,8.853
			c-10.581,3.975-18.734,7.124-24.455,9.448c10.119,19.304,21.385,33.226,33.796,41.759c12.409,8.537,29.604,14.436,51.584,17.702
			c17.164,2.623,30.769,1.89,40.818-2.193c13.676-5.557,21.129-16.226,22.36-32.013c0.244-1.398-0.684-15.492-2.788-42.283
			l32.764-1.604c2.603,26.424-0.468,45.478-9.216,57.161c-4.166,5.759-19.586,17.634-46.26,35.625
			c-15.274,10.433-24.658,16.36-28.145,17.777c-3.631,1.475-10.061,2.46-19.287,2.958c-60.885,3.437-103.204-24.085-126.964-82.567
			c-17.522-43.126-10.165-84.246,22.076-123.364c22.845-27.819,41.036-44.479,54.575-49.979
			c24.704-10.037,54.518-8.491,89.448,4.635L1103.78,245.456z"/>
		<path d="M1370.506,336.712c5.458-31.594,10.992-63.198,16.603-94.817c4.818-35.458,4.919-67.157,0.298-95.098
			c-0.909-5.497-2.042-10.96-3.397-16.387c8.023-0.411,19.543-2.316,34.556-5.715l0.147,0.892c0.985,4.114,0.917,9.697-0.207,16.754
			l-34.948,201.382c-1.522,8.347-1.9,14.823-1.139,19.428c-0.123-0.742,1.122,3.558,3.736,12.896l-47.422,15.172
			c-2.165-12.16-7.241-23.918-15.225-35.274L1223.006,213.61c-11.546-16.256-23.369-25.9-35.474-28.937l-0.664-4.013l51.23-33.431
			L1370.506,336.712z"/>
		<path d="M1617.076,381.63c-10.164-12.69-20.797-28.706-31.893-48.045c-48.591,28.645-83.051,42.78-103.385,42.408
			c-9.489-0.174-18.967-5.242-28.425-15.21c-9.462-9.966-14.104-19.695-13.931-29.184c0.611-33.438,38.557-65.138,113.84-95.103
			c-3.072-13.313-8.667-32.778-16.787-58.392c-3.028-7.436-7.073-12.935-12.129-16.495c-5.666-3.416-11.327-6.835-16.989-10.255
			l-21.712,13.164l-5.069-7.099c14.231-11.944,23.328-19.236,27.295-21.876c12.049-8.064,22.595-12.018,31.633-11.853
			c21.689,0.397,38.868,20.751,51.544,61.062l34.176,108.658c4.699,14.854,15.701,35.245,33.008,61.174L1617.076,381.63z
			 M1483.141,302.578c-0.278,15.208,10.013,31.817,30.879,49.821c14.425,0.264,27.647-3.63,39.667-11.684
			c13.39-8.782,20.509-20.008,21.36-33.684l-15.674-49.829c-17.001-0.311-32.941,2.939-47.813,9.745
			C1492.892,275.494,1483.419,287.37,1483.141,302.578z"/>
		<path d="M1705.604,390.428c3.598-17.562,9.156-43.756,16.679-78.585c7.519-34.826,13.081-61.02,16.68-78.584
			c18.205-88.843,22.042-135.344,11.516-139.501c-0.297-0.061-2.6-0.453-6.907-1.185l-0.365-7.226l63.395-4.31
			c6.05,41.008,3.491,88.777-7.682,143.3c-3.473,16.949-9.186,42.384-17.134,76.3c-7.952,33.919-13.646,59.279-17.088,76.076
			c15.267,8.044,23.933,12.274,26.001,12.698c5.164,1.058,11.847,0.333,20.054-2.18c6.606-2.236,13.146-4.489,19.608-6.762
			l5.031,8.092c-8.845,5.626-17.685,11.25-26.525,16.878c-6.563,2.757-16.263,2.816-29.103,0.186
			c-5.019-1.028-12.396-2.926-22.132-5.688c-9.738-2.763-17.04-4.645-21.91-5.643
			C1734.835,394.111,1724.794,392.825,1705.604,390.428z"/>
		<path d="M1917.699,439.63l-51.651-7.315c5.222-15.566,13.27-38.846,24.143-69.841c10.873-30.992,18.943-54.342,24.215-70.055
			c11.498-34.279,19.134-58.252,22.915-71.921c3.492-12.333,0.843-19.578-7.945-21.733l2.228-6.642l66.792,11.917L1917.699,439.63z"
			/>
		<path d="M2208.332,375.411c-15.15-42.366-31.588-68.22-49.315-77.554c-15.729-8.283-33.566-4.478-53.509,11.41
			c-15.901,12.74-28.424,28.109-37.56,46.112c58.012,32.421,88.15,49.224,90.419,50.418c11.597,6.106,25.242,9.292,40.938,9.553
			l-0.181,8.588c-31.75,3.713-64.354-3.239-97.812-20.855c-4.533-2.387-11.728-6.343-21.584-11.875
			c-9.857-5.53-17.52-9.735-22.983-12.612c-8.242,20.177-11.628,37.763-10.155,52.752c1.469,14.991,8.038,31.941,19.704,50.853
			c9.055,14.815,18.382,24.747,27.979,29.8c13.063,6.877,26.023,5.702,38.89-3.53c1.226-0.715,11.405-10.506,30.536-29.379
			l22.34,24.021c-18.529,19.019-35.078,28.948-49.649,29.787c-7.089,0.525-26.105-3.614-57.052-12.418
			c-17.82-4.958-28.399-8.313-31.73-10.067c-3.468-1.826-8.363-6.108-14.689-12.843c-41.862-44.344-48.086-94.44-18.677-150.294
			c21.688-41.189,57.873-62.061,108.562-62.613c35.995-0.457,60.456,2.718,73.387,9.527c23.594,12.423,41.624,36.218,54.095,71.387
			L2208.332,375.411z"/>
		<path d="M2363.801,732.047l-5.039,5.799c-13.055-4.958-25.895-12.92-38.517-23.889c-4.209-3.657-8.381-7.581-12.52-11.776
			c-9.771-9.889-16.337-25.071-19.692-45.552c-1.262-7.28-2.666-24.268-4.215-50.961c-0.898-17.344-3.33-27.638-7.292-30.884
			l-3.923-3.409l-43.651,46.791l-45.709-25.947c8.905-10.022,23.956-26.881,45.147-50.579c19.41-21.649,34.453-38.617,45.125-50.898
			c10.176-11.711,21.952-25.727,35.334-42.042c9.257-11.116,14.633-18.218,16.125-21.313c3.994-8.504,2.987-16.761-3.019-24.776
			l3.705-4.265l57.979,27.329c-2.576,5.947-6.974,14.798-13.194,26.554c44.619,5.841,71.305,12.564,80.063,20.174
			c17.74,15.415,27.09,36.463,28.055,63.146c0.961,26.683-6.262,48.893-21.676,66.633c-15.515,17.854-33.967,26.569-55.351,26.147
			c-5.997-0.22-26.688-4.428-62.074-12.626c-1.407,19.536-0.502,40.08,2.722,61.639
			C2346.405,705.556,2353.611,723.792,2363.801,732.047z M2407.54,581.455c11.462-13.19,17.605-31.403,18.434-54.632
			c0.736-24.507-5.375-42.391-18.339-53.656c-18.878-16.403-47.542-2.477-85.995,41.776l-42.515,48.928l9.04,7.855
			c19.762,18.369,39.476,29.212,59.146,32.533C2370.763,608.276,2390.841,600.673,2407.54,581.455z"/>
		<path d="M2585.708,767.914l-0.94-8.669c3.78-1.753,6.806-3.499,9.08-5.238c5.144-3.934,6.541-18.473,4.197-43.609
			c-2.131-24.357-5.438-39.467-9.921-45.329c-12.174-15.915-27.952-16.458-47.337-1.63c-8.497,6.5-9.672,25.793-3.519,57.885
			c4.575,18.878,9.215,37.711,13.913,56.5c5.118,22.068,7.641,35.409,7.565,40.018c-0.213,12.867-6.775,24.244-19.698,34.129
			c-22.257,17.024-46.023,21.165-71.293,12.427c-21.889-7.538-41.754-22.971-59.602-46.304
			c-30.753-40.205-32.746-70.828-5.978-91.873l6.504-5.259l4.983-3.527l37.321,41.725c-12.568,6.386-20.403,10.77-23.514,13.149
			c-6.941,5.309-10.892,12.976-11.85,23.004c-0.963,10.027,1.26,18.569,6.661,25.631c8.694,11.367,19.462,17.262,32.302,17.682
			c11.994,0.308,23.736-3.931,35.224-12.717c10.289-7.871,12.624-23.788,7.005-47.749c-5.572-21.912-11.157-43.72-16.755-65.421
			c-3.829-25.334,1.559-43.583,16.158-54.75c17.231-13.18,35.813-18.765,55.75-16.754c10.586,1.193,24.729,6.356,42.428,15.485
			c17.695,9.127,29.658,17.758,35.883,25.896c4.851,6.341,8.419,19.067,10.712,38.18c1.886,14.868,2.682,28.675,2.381,41.423
			L2585.708,767.914z"/>
		<path d="M2643.631,1321.23l-21.809-47.098c5.283-5.602,9.051-9.117,11.305-10.549c0.785-0.542,5.517-2.611,14.202-6.21
			c-1.165-1.862-11.003-14.231-29.514-37.116c-11.935-14.749-19.694-28.346-23.282-40.794c-7.595-26.347-2.141-51.75,16.364-76.21
			c16.79-22.243,38.722-37.267,65.792-45.07c34.883-10.056,68.293-5.657,100.228,13.204c12.805,7.439,25.433,18.067,37.882,31.882
			c13.733,15.01,22.416,28.814,26.047,41.408c3.463,12.013,0.621,31.805-8.521,59.368l9.988-2.879
			c13.75-3.964,26.577-8.683,38.486-14.151c19.78-9.153,27.945-16.992,24.497-23.524l4.928-3.302
			c17.113,26.734,26.485,42.928,28.112,48.573c1.085,3.762-7.388,9.732-25.41,17.908c-12.632,5.677-24.094,10.238-34.392,13.676
			c-20.059,6.565-46.02,14.126-77.887,22.688c-44.754,12.272-70.818,19.473-78.201,21.602c-5.937,1.711-14.733,4.365-26.396,7.961
			c-11.663,3.597-20.392,6.231-26.18,7.899c-11.582,3.339-18.954,9.852-22.116,19.545L2643.631,1321.23z M2622.378,1206.712
			c2.294,7.959,5.366,14.129,9.219,18.508c3.849,4.376,11.67,9.453,23.457,15.227c11.788,5.773,20.001,7.992,24.643,6.654
			l105.858-30.515c20.693-49.083,28.624-82.019,23.784-98.809c-4.674-16.214-16.979-26.229-36.915-30.044
			c-15.997-3.23-32.981-2.251-50.949,2.928c-23.911,6.893-47.123,21.657-69.634,44.296
			C2625.897,1160.934,2616.077,1184.853,2622.378,1206.712z"/>
		<path d="M2836.068,1522.689c28.745-34.614,42.624-61.928,41.629-81.937c-0.883-17.756-13.24-31.169-37.07-40.24
			c-19.063-7.197-38.666-10.146-58.813-8.841c1.643,66.437,2.53,100.931,2.657,103.491c0.651,13.091,4.858,26.456,12.628,40.097
			l-7.482,4.219c-19.365-25.434-29.986-57.034-31.864-94.798c-0.255-5.117-0.514-13.323-0.772-24.623
			c-0.261-11.3-0.543-20.035-0.85-26.203c-21.563,3.183-38.422,9.225-50.571,18.126c-12.153,8.898-23.396,23.184-33.73,42.855
			c-8.139,15.337-11.936,28.423-11.396,39.256c0.733,14.745,8.346,25.3,22.843,31.671c1.239,0.691,14.851,4.465,40.835,11.318
			l-9.295,31.459c-25.804-6.262-42.777-15.447-50.92-27.561c-4.063-5.832-10.185-24.307-18.367-55.423
			c-4.809-17.861-7.309-28.674-7.495-32.434c-0.195-3.915,0.996-10.309,3.571-19.183c16.844-58.609,56.787-89.478,119.833-92.613
			c46.493-2.312,82.883,18.2,109.172,61.542c18.725,30.744,28.449,53.413,29.175,68.008c1.324,26.632-9.972,54.266-33.888,82.911
			L2836.068,1522.689z"/>
		<path d="M2603.021,1792.083c17.144,5.241,42.696,13.248,76.659,24.025c33.96,10.773,59.512,18.784,76.658,24.025
			c86.728,26.513,132.658,34.725,137.791,24.638c0.089-0.291,0.696-2.546,1.831-6.766l7.228,0.319l-1.695,63.518
			c-41.396,2.15-88.709-4.906-141.934-21.178c-16.546-5.058-41.328-13.147-74.342-24.262c-33.017-11.12-57.726-19.184-74.122-24.195
			c-9.45,14.438-14.479,22.666-15.097,24.686c-1.541,5.041-1.451,11.763,0.276,20.17c1.603,6.788,3.229,13.51,4.881,20.159
			l-8.53,4.244c-4.767-9.336-9.531-18.667-14.299-28c-2.124-6.794-1.268-16.456,2.563-28.99c1.498-4.899,4.084-12.065,7.753-21.495
			c3.671-9.434,6.233-16.525,7.688-21.28C2596.595,1820.837,2598.823,1810.963,2603.021,1792.083z"/>
		<path d="M2472.146,2088.551c15.896-3.418,34.976-5.769,57.235-7.046c-3.896-56.27-1.132-93.413,8.293-111.436
			c4.398-8.41,13.169-14.622,26.314-18.625c13.146-4.008,23.923-3.81,32.334,0.588c29.636,15.498,41.024,63.613,34.166,144.35
			c13.282,3.204,33.194,6.903,59.735,11.093c8.006,0.616,14.732-0.544,20.178-3.474c5.589-3.54,11.179-7.076,16.769-10.611
			l-2.066-25.307l8.616-1.359c4.32,18.07,6.776,29.467,7.363,34.196c1.826,14.383,0.646,25.584-3.542,33.594
			c-10.053,19.224-35.941,25.488-77.664,18.803l-112.472-18.015c-15.389-2.438-38.547-1.714-69.479,2.173L2472.146,2088.551z
			 M2602.742,2004.096c-13.479-7.049-32.937-5.271-58.37,5.344c-6.686,12.784-9.114,26.353-7.285,40.705
			c1.868,15.902,8.728,27.291,20.58,34.166l51.577,8.262c7.88-15.069,12.1-30.78,12.662-47.125
			C2622.608,2024.928,2616.221,2011.144,2602.742,2004.096z"/>
		<path d="M2309.256,2561.449c43.037-2.593,70.715-8.976,83.029-19.144c10.934-22.885,13.912-43.703,8.933-62.457
			c-4.029-15.8-15.218-34.389-33.563-55.766c-17.758-20.692-40.797-34.473-69.118-41.331c-29.695-7.076-56.114-3.857-79.261,9.655
			c-10.235,16.526-5.596,41.824,13.919,75.899l-36.436,19.655c-26.119-39.923-11.398-83.721,44.162-131.401
			c22.523-19.329,49.75-25.424,81.682-18.285c29.302,6.613,53.96,21.586,73.975,44.907c21.485,25.037,32.026,51.427,31.616,79.174
			c-0.23,24.021-8.955,51.556-26.177,82.615c-4.635,7.551-11.083,19.235-19.342,35.061c-26.724,14.196-53.973,21.307-81.753,21.324
			L2309.256,2561.449z"/>
		<path d="M2073.766,2486.423l38.653-35.033c8.629,13.969,21.381,35.043,38.257,63.223c16.875,28.177,29.666,49.314,38.376,63.414
			c19.001,30.761,32.55,51.961,40.641,63.609c7.248,10.571,14.514,13.168,21.79,7.789l3.682,5.959l-51.873,43.73L2073.766,2486.423z
			"/>
		<path d="M2051.521,2824.047c2.77-14.616-0.123-32.136-8.683-52.561c-3.877,1.656-9.859,4.045-17.946,7.172
			c-8.084,3.121-14.065,5.514-17.945,7.171c-20.919,8.932-36.721,20.263-47.402,33.999l-6.553-3.836
			c9.092-22.064,26.176-38.45,51.25-49.156c3.189-1.362,8.354-3.364,15.497-6.003c7.145-2.644,12.587-4.76,16.328-6.357
			c-4.506-10.554-11.233-26.597-20.185-48.137s-15.708-37.651-20.271-48.341c-1.128-2.641-2.983-7.185-5.573-13.627
			c-2.587-6.446-4.624-11.405-6.104-14.873c-18.259-42.763-39.922-63.962-64.993-63.596c-5.207,19.258-3.248,41.684,5.873,67.273
			l-38.972,10.006c-14.476-47.714-1.206-80.323,39.803-97.833c16.626-7.099,33.463-8.145,50.506-3.136
			c17.778,5.186,30.569,15.775,38.382,31.771c10.08,20.92,21.815,47.444,35.202,79.567c22.852,55.437,33.892,82.254,33.123,80.455
			c2.078-0.887,5.4-2.225,9.96-4.007c4.563-1.787,7.954-3.15,10.169-4.096c11.086-4.733,19.539-11.783,25.368-21.151l3.087-0.827
			c2.673,12.78,3.819,20.645,3.439,23.594c-0.578,4.014-3.778,7.265-9.597,9.749c-1.523,0.65-6.179,2.309-13.968,4.981
			c-7.787,2.668-14.935,5.394-21.449,8.175c3.503,9.73,5.969,18.007,7.405,24.822l-40.563,51.745L2051.521,2824.047z"/>
		<path d="M1657.687,2613.35c12.635,10.234,26.436,23.616,41.396,40.148c41.373-38.338,72.031-59.489,91.978-63.457
			c9.309-1.853,19.648,1.08,31.013,8.806c11.368,7.722,17.977,16.238,19.828,25.547c6.526,32.801-23.796,71.856-90.968,117.171
			c5.838,12.353,15.451,30.179,28.841,53.475c4.543,6.62,9.667,11.131,15.364,13.532c6.264,2.131,12.523,4.266,18.784,6.4
			l18.409-17.486l6.464,5.856c-11.359,14.702-18.693,23.764-22.008,27.188c-10.055,10.445-19.517,16.555-28.382,18.318
			c-21.276,4.233-42.397-11.995-63.368-48.68l-56.537-98.884c-7.757-13.512-22.851-31.091-45.283-52.738L1657.687,2613.35z
			 M1805.388,2662.057c-2.969-14.919-16.561-28.955-40.783-42.1c-14.15,2.815-26.239,9.436-36.268,19.866
			c-11.211,11.432-15.776,23.918-13.693,37.461l25.927,45.346c16.678-3.317,31.56-9.89,44.641-19.706
			C1801.63,2690.596,1808.355,2676.975,1805.388,2662.057z"/>
		<path d="M1368.129,2629.648l51.417-7.076c3.812,6.689,6.07,11.32,6.781,13.896c0.289,0.909,0.884,6.039,1.785,15.397
			c2.121-0.569,16.827-6.358,44.126-17.364c17.595-7.1,32.868-10.542,45.82-10.332c27.417,0.444,50.112,13.091,68.09,37.942
			c16.358,22.562,24.31,47.929,23.853,76.098c-0.588,36.299-14.567,66.961-41.945,91.981
			c-10.859,10.067-24.717,19.035-41.568,26.897c-18.371,8.743-34.112,13.008-47.217,12.795c-12.501-0.202-30.595-8.71-54.279-25.514
			l-0.168,10.393c-0.232,14.309,0.528,27.956,2.274,40.943c2.966,21.593,8.074,31.694,15.329,30.308l1.716,5.678
			c-30.571,8.544-48.797,12.769-54.672,12.674c-3.915-0.063-7.146-9.912-9.691-29.538c-1.733-13.74-2.742-26.034-3.018-36.887
			c-0.41-21.103-0.046-48.14,1.089-81.117c1.356-46.387,2.094-73.417,2.219-81.1c0.1-6.178,0.136-15.365,0.108-27.57
			c-0.028-12.204,0.007-21.321,0.104-27.345c0.195-12.053-3.876-21.007-12.221-26.866L1368.129,2629.648z M1483.855,2642.825
			c-8.282-0.135-15.081,0.998-20.396,3.401c-5.311,2.4-12.453,8.394-21.423,17.977c-8.969,9.584-13.493,16.788-13.571,21.618
			l-1.786,110.154c40.883,34.146,70.058,51.364,87.53,51.647c16.872,0.273,30.049-8.563,39.528-26.511
			c7.769-14.353,11.801-30.881,12.104-49.577c0.403-24.883-6.926-51.397-21.989-79.546
			C1526.602,2659.582,1506.602,2643.193,1483.855,2642.825z"/>
		<path d="M1120.582,2759.23c25.114,37.332,47.412,58.344,66.891,63.025c17.285,4.155,33.637-3.924,49.053-24.232
			c12.276-16.263,20.628-34.242,25.051-53.94c-64.208-17.141-97.556-26.006-100.048-26.604c-12.743-3.063-26.753-2.792-42.031,0.82
			l-1.939-8.368c29.859-11.416,63.171-12.705,99.936-3.868c4.981,1.197,12.928,3.261,23.843,6.196
			c10.916,2.933,19.376,5.122,25.381,6.565c3.02-21.585,1.972-39.464-3.146-53.629c-5.114-14.168-15.654-28.979-31.618-44.437
			c-12.423-12.13-23.909-19.459-34.455-21.994c-14.354-3.45-26.626,0.881-36.823,12.995c-1.012,0.995-8.468,12.991-22.364,35.993
			l-27.566-17.781c13.277-22.995,26.872-36.692,40.788-41.094c6.741-2.254,26.192-2.924,58.353-2.01
			c18.492,0.418,29.572,1.065,33.232,1.945c3.811,0.916,9.61,3.86,17.399,8.83c51.491,32.673,69.857,79.694,55.104,141.07
			c-10.879,45.262-40.812,74.398-89.804,87.414c-34.774,9.305-59.264,12.249-73.473,8.834
			c-25.926-6.231-49.259-24.855-70.005-55.872L1120.582,2759.23z"/>
		<path d="M1089.836,2541.061c-7.365,16.343-18.539,40.68-33.523,73.007c-14.979,32.326-26.156,56.661-33.522,73.007
			c-37.263,82.681-51.214,127.204-41.857,133.571c0.277,0.124,2.437,1.013,6.479,2.672l-1.23,7.129l-62.794-9.71
			c3.1-41.336,16.081-87.378,38.949-138.119c7.109-15.773,18.266-39.334,33.465-70.679c15.204-31.346,26.326-54.837,33.371-70.469
			c-13.128-11.199-20.654-17.229-22.579-18.096c-4.806-2.166-11.485-2.926-20.043-2.275c-6.937,0.731-13.811,1.495-20.615,2.293
			l-3.132-8.998c9.864-3.549,19.723-7.095,29.583-10.645c7.008-1.249,16.484,0.822,28.433,6.207
			c4.671,2.105,11.453,5.576,20.344,10.408c8.894,4.833,15.605,8.272,20.137,10.315
			C1062.126,2531.051,1071.64,2534.51,1089.836,2541.061z"/>
		<path d="M942.172,2467.375c-9.682,15.086-24.303,37.521-43.865,67.303c-19.557,29.78-34.18,52.214-43.864,67.303
			c-48.982,76.323-69.311,118.321-60.988,125.99c0.256,0.164,2.262,1.359,6.018,3.594l-2.262,6.872l-60.692-18.813
			c9.127-40.435,28.718-84.076,58.779-130.916c9.344-14.561,23.835-36.23,43.465-65.008c19.635-28.778,34.081-50.385,43.342-64.814
			c-11.344-13.003-17.905-20.071-19.682-21.211c-4.437-2.848-10.932-4.578-19.493-5.189c-6.969-0.294-13.88-0.547-20.728-0.754
			l-1.779-9.361c10.277-2.063,20.55-4.126,30.824-6.191c7.115-0.208,16.186,3.23,27.216,10.31
			c4.312,2.767,10.511,7.194,18.598,13.277c8.089,6.086,14.224,10.471,18.407,13.156
			C916.229,2453.41,925.132,2458.227,942.172,2467.375z"/>
		<path d="M568.197,2417.976c4.236,44.793,13.792,73.902,28.67,87.318c13.203,11.906,31.427,12.617,54.67,2.137
			c18.552-8.426,34.478-20.233,47.77-35.428c-48.227-45.724-73.292-69.439-75.195-71.156c-9.733-8.776-22.172-15.229-37.32-19.352
			l2.292-8.278c31.686,4.23,61.569,19.007,89.65,44.329c3.805,3.431,9.802,9.038,17.989,16.83
			c8.19,7.79,14.578,13.755,19.164,17.891c12.962-17.522,20.58-33.73,22.849-48.62c2.273-14.89,0.086-32.938-6.557-54.142
			c-5.122-16.59-11.713-28.515-19.768-35.778c-10.963-9.887-23.814-11.942-38.559-6.169c-1.365,0.391-13.645,7.37-36.838,20.943
			l-15.727-28.788c22.646-13.862,41.133-19.404,55.461-16.625c6.999,1.239,24.408,9.939,52.228,26.103
			c16.048,9.198,25.473,15.06,28.268,17.58c2.911,2.624,6.6,7.981,11.07,16.068c29.635,53.296,23.315,103.38-18.958,150.259
			c-31.174,34.57-71.388,45.875-120.648,33.912c-34.996-8.433-57.918-17.541-68.771-27.328
			c-19.802-17.856-31.408-45.362-34.822-82.521L568.197,2417.976z"/>
	</g>
	
		<rect id="pastille" x="374.459" y="1940.471" transform="matrix(0.9701 0.2425 -0.2425 0.9701 494.0695 -42.4511)" width="89.987" height="89.987"/>
	<path id="corbin" fill="#010202" d="M2241.134,1719.215c-6.265-13.152-5.175-20.355-5.175-20.355s7.626,25.678,58.012,27.87
		c50.386,2.192,104.313-4.071,159.057-43.841c0,0-53.11,17.849-115.208,15.657c-62.098-2.192-111.394-20.041-113.028-35.385
		c16.069,8.142,22.605,10.021,55.016,9.394c32.411-0.626,122.289-31.315,144.077-75.469
		c-41.671,26.618-65.094,52.922-140.809,51.669c-75.715-1.252-116.024-19.728-116.024-19.728s99.138,11.273,141.626-38.204
		c-59.919,21.607-58.557,25.678-123.378,24.739c-54.002-0.783-126.14-23.949-151.555-39.809l-1.85-1.198
		c-4.021-2.705-6.573-5.165-7.287-7.218c4.194-2.067,10.945-3.731,18.23-5.042l0.927-0.162c15.677-2.742,33.408-3.877,33.408-3.877
		s-7.969-8.917-49.808-18.707l-1.978-0.457c-26.519-6.068-66.129-12.421-124.974-17.161l-6.395-2.022
		c-72.948-31.08-151.283-67.603-151.893-70.958c-0.931-5.122,52.151-61.464,64.724-64.724c21.885-0.466,14.434-5.122,35.389-7.916
		c20.953-2.794,58.67-2.328,58.67-2.328c0-45.778-42.509-48.849-49.331-54.485c-6.823-5.636-15.722-22.247-60.217-22.247
		c-36.486-26.994-56.36-45.681-150.689-46.868c-94.329-1.187-133.484,51.614-133.484,51.614s11.865,2.076,10.679,8.009
		c-1.187,5.933-37.376-0.297-37.376-0.297s2.076,21.061-0.297,21.358c-2.373,0.297-26.104-19.578-48.054-29.07
		c-21.951-9.492-40.045-14.238-48.944-22.841c-8.899-8.602-7.119-22.247-1.78-31.146c5.339-8.899,2.966-45.978-11.568-64.962
		c-8.009,1.78-9.789-3.263-20.171,0.593c-10.382,3.856-8.306,10.085-16.908,8.009c-8.602-2.076-8.602-9.492-8.602-9.492
		l-26.697-1.483c0,0-3.754-60.464,25.582-120.997c29.335-60.533,64.724-110.356,64.724-110.356s-57.274-11.641-91.731,45.633
		c-34.457,57.274-25.61,91.265-50.289,91.265s-43.77-45.633-45.633-219.316c-0.931-128.051,17.694-153.195,17.694-153.195
		s-69.846,47.495-69.846,155.523c0,36.786,5.588,54.945,5.588,68.915s-4.656,33.06-22.351,33.06
		c-17.694,0-69.38-53.083-57.274-292.887c0,0-55.877,26.541-55.877,121.997s87.074,231.423,87.074,237.942
		s-19.557,9.313-40.51-11.641c-59.369-59.369-139.226-176.943-181.133-198.362c0,0,14.434,27.938,14.9,38.648
		c0.465,10.71-5.122,14.901,3.259,26.542c8.382,11.641,104.303,137.829,97.784,143.417c-6.519,5.588-33.526-1.863-113.616-87.074
		s-95.456-85.212-95.456-85.212s18.626,24.213,19.091,39.579s-5.588,13.969,9.313,33.06s76.365,95.922,75.899,104.769
		c-0.466,8.847-9.779,18.16-38.182,3.725c-28.404-14.435-67.518-27.473-67.518-27.473s14.435,18.626,13.038,25.145
		c-1.397,6.519,34.457,38.648,40.511,52.152c6.053,13.504,13.504,33.06,0.466,35.389c-13.038,2.328-38.182-11.175-38.182-11.175
		s11.175,54.48,27.938,71.708s30.732,23.748,30.732,23.748s12.107,6.053-7.916,9.313c-20.023,3.26-45.167,4.656-45.167,4.656
		s14.435,44.236,45.633,41.442c31.198-2.794-1.397,16.297-3.259,16.763c-1.863,0.466-8.382,3.26-8.382,3.26
		s19.091,3.259,14.901,12.572c-4.191,9.313-20.954,8.847-24.214,1.397c-2.328,16.297,9.778,26.542,21.885,19.091
		s21.885-7.45,22.817,1.863s-24.213,65.655-18.16,77.296c0,0,8.382,16.297,60.533-21.419c52.152-37.717,32.129,12.107,11.175,27.007
		c-20.953,14.9-58.205,45.633-58.205,45.633s20.022,36.32,35.389,34.923c4.19,27.007,13.038,49.823,28.87,46.098
		c2.328,32.595,12.572,53.548,40.045,51.22c3.725,32.595,16.298,32.595,40.976,34.457c2.328,21.885,13.969,37.251,44.701,26.076
		c17.694,16.297,30.266,12.572,30.266,12.572c4.191,9.778,20.954,4.191,20.954,4.191c2.794,9.313,23.282,4.656,43.304-12.107
		c23.282,0,38.648-2.794,72.64-46.098s46.098-61.93,46.098-61.93s3.259,13.504-15.366,50.289
		c-18.626,36.786-28.404,57.739-84.281,76.83c-14.9,5.588-12.164,4.99-26.133,10.577c-13.969,5.588-85.155,17.827-114.955,62.994
		c-7.45,12.572-8.847,33.06,2.328,52.617c14.435-13.504,31.663-18.626,33.526-13.504s-27.007,27.473-54.945,63.327
		c-27.938,35.854-33.061,72.174-26.076,79.624c6.985,7.45,32.129,4.656,32.129,4.656s-65.19,81.021-44.702,95.922
		c20.488,14.9,83.815-54.945,85.678-54.014c13.503,13.038-28.404,61.464-40.511,85.212s-8.381,27.938-8.381,27.938
		s10.244-0.466,6.519,6.985s-13.969,7.45-11.641,39.114c13.969-6.985,15.366-4.191,20.954-6.519s47.03-77.296,57.739-86.143
		c-13.504,55.411-28.404,105.234-34.457,117.341c3.725,7.45,13.969,20.954,8.847,36.786c-5.122,15.832,21.885,13.969,40.976-1.863
		s14.435,1.397,29.801-15.832c15.366-17.229,35.854-42.839,35.854-42.839s-5.122,64.258-36.786,96.387
		c15.366-3.725,28.404-23.748,28.404-23.748s10.244,7.916-9.313,38.648c30.732-9.313,36.32-41.907,36.32-41.907
		s10.71,1.397,12.107,9.313c18.16,0,40.51,1.863,55.877-47.495c15.366-49.358,19.557-42.839,19.557-42.839
		s-0.931,63.327,14.435,59.602c15.366-3.725,29.801-10.244,28.404-53.549c13.969,3.26,22.816-2.794,21.419-65.189
		c-1.397-62.396,25.145-74.036,25.145-74.036l12.107,23.748c0,0,6.053-26.541,11.175-26.076c5.122,0.466,12.572,20.022,10.71,25.61
		c12.107-4.191,16.297,2.328,16.763-56.808c9.313-0.466,10.244,2.328,16.297,28.404c6.053,26.076,12.572,48.892,32.129,43.77
		c19.557-5.122,33.526-37.717,29.335-70.777c4.191,0.931,6.519-3.725,6.519-3.725s-20.022-47.03-19.557-76.83
		c26.076,21.885,40.511,36.786,40.511,36.786s39.475-28.444,38.171-70.577c-1.761-8.362-3.565-16.846-5.111-23.947
		c-5.068-23.279-0.016-34.796,21.523-93.667c-9.513,46.448-7.248,70.652,1.354,103.888c7.084,6.843,21.742,15.135,35.399,16.88
		c2.715,21.849,0,32.253,0,32.253s11.311-23.93,19.455-18.727c8.144,5.202,0.452,11.444-6.334,23.929
		c-6.787,12.485-4.977,21.849-4.977,21.849l35.291-1.04c0,0-4.524,21.328,0.452,29.132c1.357-18.727,15.836-48.379,27.599-45.258
		c4.977,20.808,28.052,62.446,28.052,62.446s0-23.42,28.504-24.981c-1.81,8.844-18.551,27.565-17.646,32.767
		c0.905,5.202,5.882,13.783,5.882,13.783s1.81-8.975,31.671-29.783c29.861-20.808,46.149-31.798,47.507-27.637
		c1.357,4.162-16.74,17.134-17.646,37.422c-0.905,20.288,14.931,39.519,14.931,39.519s10.406-20.817,9.501-47.347
		c12.216,15.606,15.836,17.163,15.836,17.163s-6.787-33.815,5.882-41.098c12.668-7.283,28.504-23.93,28.504-23.93
		s-3.619,13.005-12.668,33.292c-9.049,20.288-19.002,42.656-2.262,63.465c16.74,20.808,19.32,20.577,19.32,20.577
		s-0.272-31.315,4.63-43.841c4.902-12.526-1.906-31.315-1.362-32.881c0.544-1.566,8.715,7.829,9.805,16.91
		c1.09,9.081,1.09,9.081,1.09,9.081s20.154-37.578,26.419-43.214c1.906,13.778-10.078,60.438-10.078,60.438s30.232,0,48.48-48.225
		c18.248-48.225,18.248-48.225,18.248-48.225s3.541,23.799,16.614,31.315c7.354-19.415,26.691-46.659,26.691-46.659
		s-6.264,55.427-10.35,64.195c8.988-7.516,14.98-10.021,14.98-10.021s-8.443,24.425,19.61,42.275
		c1.089-22.547,17.431-32.567,15.524-63.569c-1.906-31.002-17.703-39.77,13.618-77.66c0,0-29.959,107.41,99.411,110.854
		c-24.512-47.912-37.585-62.943-11.984-105.531c1.09,5.01,4.903,7.516,3.541,13.152c-1.362,5.637-4.085,10.96-2.996,22.86
		c1.09,11.9-3.54,42.588,73.809,65.135c3.541-27.87,2.179-62.316-44.939-107.41c5.992-38.517,10.077-43.527,10.077-43.527
		s-7.898,28.81,2.724,38.204c10.622,9.394,44.939,36.325,153.882,47.285c-11.711-25.365-112.211-89.873-112.211-89.873
		s23.423,2.818,26.418-11.9c38.13,25.991,27.508,27.244,157.696,26.931C2361.243,1766.188,2247.398,1732.368,2241.134,1719.215z
		 M1686.997,1294.526c4.326-1.029,8.856-1.577,13.523-1.577c18.072,0,34.104,8.198,44.108,20.848
		c-4.326,1.029-8.856,1.577-13.523,1.577C1713.033,1315.374,1697.001,1307.176,1686.997,1294.526z"/>
</g>
</svg>
